<svg width="10" height="636" viewBox="0 0 10 636" fill="none" xmlns="http://www.w3.org/2000/svg">
<path d="M7.28926 5.8307L8.54126 4.53002C8.58309 10.9137 8.65576 17.4573 8.75927 24.1606C8.83194 30.7042 8.91707 37.4746 9.01467 44.4718C9.14901 51.335 9.22823 58.3994 9.25232 65.6649C9.31317 72.7962 9.33726 80.0617 9.32461 87.4613C9.33987 107.015 9.14054 127.079 8.72664 147.654C8.31865 167.935 8.27815 186.875 8.60514 204.473C8.72975 206.742 8.83599 209.078 8.92386 211.481C9.01764 213.59 9.09304 215.766 9.15007 218.009L9.49225 231.467C9.59112 240.094 9.68153 245.755 9.76348 248.452C9.89528 252.056 9.96541 255.341 9.97386 258.306C9.99204 265.865 9.9889 273.639 9.96442 281.626C9.94585 289.32 9.90595 297.227 9.84473 305.349C9.7835 313.471 9.75606 321.605 9.76242 329.752C9.77469 337.606 9.82075 345.472 9.90061 353.351C10.0177 369.537 9.99953 385.672 9.84624 401.755C9.78502 409.877 9.72379 417.998 9.66256 426.12C9.63808 434.107 9.6136 442.095 9.58912 450.082C9.58111 455.558 9.5731 461.035 9.56509 466.511C9.59383 471.853 9.62256 477.195 9.6513 482.537C9.68004 487.879 9.69336 493.141 9.69126 498.324C9.68916 503.506 9.67164 508.608 9.63871 513.631C9.66618 517.343 9.67822 520.976 9.67485 524.529C9.70823 527.948 9.72324 531.434 9.71987 534.986C9.72495 541.504 9.80058 547.901 9.94675 554.176C9.8213 558.719 9.71128 563.342 9.61667 568.045C9.52207 572.748 9.44288 577.53 9.37911 582.393C9.29423 591.69 8.8465 600.405 8.03593 608.538C7.91386 609.528 7.80721 610.598 7.71597 611.748C7.55715 612.872 7.41375 614.077 7.28576 615.361C7.15778 616.645 7.01438 617.849 6.85555 618.973C6.69082 620.391 6.51067 621.73 6.3151 622.988C6.07096 624.968 5.7474 627.511 5.34444 630.616C4.94147 633.72 4.59891 635.515 4.31674 636C3.59696 634.541 3.11437 633.988 2.86895 634.338C2.66028 634.555 2.4362 634.692 2.1967 634.749C1.61336 634.971 1.23509 634.309 1.06191 632.762C0.944475 631.829 0.864843 628.171 0.823008 621.787C0.815824 620.451 0.80864 619.116 0.801455 617.78C0.757522 616.579 0.729007 615.457 0.71591 614.416C0.65888 612.173 0.648103 610.17 0.68358 608.406C0.691592 602.93 0.800345 596.677 1.00984 589.649C1.07488 586.416 1.15534 583.262 1.25122 580.189C1.31626 576.956 1.3813 573.723 1.44634 570.489C1.57643 564.023 1.62646 557.304 1.59646 550.332C1.56645 543.361 1.51215 536.75 1.43357 530.501C1.40483 525.159 1.35772 519.884 1.29223 514.676C1.2635 509.333 1.21638 504.058 1.1509 498.85C1.08541 493.642 1.02288 488.287 0.96331 482.785C0.90965 476.99 0.858946 471.047 0.811199 464.957L0.617222 428.898C0.572018 426.067 0.526814 423.236 0.481609 420.405C0.442318 417.28 0.384652 414.223 0.308611 411.232C0.232571 408.241 0.171949 405.33 0.126744 402.5C0.0874525 399.375 0.0452045 396.397 0 393.566C0.166832 386.966 0.277906 379.751 0.33322 371.924C0.43374 366.927 0.503423 361.77 0.54227 356.454C0.581118 351.138 0.604547 345.741 0.612559 340.265C0.62057 334.789 0.641043 329.54 0.673978 324.517C0.676076 319.335 0.706054 314.459 0.763912 309.891L0.705549 282.324C0.695822 277.73 0.686095 273.135 0.676368 268.541C0.672553 263.652 0.668739 258.764 0.664925 253.876C0.670394 245.14 0.694237 236.338 0.736454 227.469C0.784584 218.306 0.835671 208.996 0.889714 199.539C0.943758 190.082 0.991888 180.918 1.03411 172.049C1.04549 163.02 1.03554 154.205 1.00426 145.604C1.08704 141.489 1.09569 136.828 1.0302 131.62C1.00992 129.242 0.98668 127.012 0.960486 124.929C0.940204 122.552 0.935341 120.255 0.945895 118.037C0.962362 115.526 0.97883 113.015 0.995297 110.504C1.04851 107.858 1.09877 105.36 1.14608 103.009C1.25842 97.424 1.2884 92.5485 1.23601 88.3821C1.34117 81.462 1.31771 75.0112 1.16563 69.0298C1.03847 63.5021 1.05767 56.6233 1.22323 48.3934C1.23506 47.8055 1.29546 46.4957 1.40444 44.464C1.45301 43.742 1.50158 43.02 1.55016 42.2981C1.60465 41.2822 1.65913 40.2663 1.71362 39.2504L1.80041 32.3973C1.84771 30.0459 1.93831 28.0812 2.07221 26.5032C2.09586 25.3275 2.17463 23.9506 2.30853 22.3726L2.78309 16.5556C3.0568 13.1056 3.23927 10.8056 3.3305 9.65561C3.39091 8.3458 3.62322 6.95331 4.02746 5.47815C4.24795 4.67352 4.57573 3.61353 5.01081 2.29818C5.44588 0.982843 5.76775 0.216781 5.97641 0C6.24675 0.102861 6.43472 0.914824 6.54033 2.43589C6.67677 4.11677 6.92641 5.24838 7.28926 5.8307Z" fill="#B76E79"/>
</svg>
