<svg width="680" height="680" viewBox="0 0 680 680" fill="none" xmlns="http://www.w3.org/2000/svg">
<path d="M227.289 26.8307L228.541 25.53C228.583 31.9137 228.656 38.4573 228.759 45.1606C228.832 51.7042 228.917 58.4746 229.015 65.4718C229.149 72.335 229.228 79.3994 229.252 86.6648C229.313 93.7962 229.337 101.062 229.325 108.461C229.34 128.015 229.141 148.079 228.727 168.654C228.319 188.935 228.278 207.875 228.605 225.473C228.73 227.742 228.836 230.078 228.924 232.481C229.018 234.59 229.093 236.766 229.15 239.009L229.492 252.467C229.591 261.094 229.682 266.755 229.763 269.452C229.895 273.056 229.965 276.341 229.974 279.306C229.992 286.865 229.989 294.639 229.964 302.626C229.946 310.32 229.906 318.227 229.845 326.349C229.783 334.471 229.756 342.605 229.762 350.752C229.775 358.606 229.821 366.472 229.901 374.351C230.018 390.537 230 406.672 229.846 422.755C229.785 430.877 229.724 438.998 229.663 447.12C229.638 455.107 229.614 463.095 229.589 471.082C229.581 476.558 229.573 482.035 229.565 487.511C229.594 492.853 229.623 498.195 229.651 503.537C229.68 508.879 229.693 514.141 229.691 519.324C229.689 524.506 229.672 529.608 229.639 534.631C229.666 538.343 229.678 541.976 229.675 545.529C229.708 548.948 229.723 552.434 229.72 555.986C229.725 562.504 229.801 568.901 229.947 575.176C229.821 579.719 229.711 584.342 229.617 589.045C229.522 593.748 229.443 598.53 229.379 603.393C229.294 612.69 228.847 621.405 228.036 629.538C227.914 630.528 227.807 631.598 227.716 632.748C227.557 633.872 227.414 635.077 227.286 636.361C227.158 637.645 227.014 638.849 226.856 639.973C226.691 641.391 226.511 642.73 226.315 643.988C226.071 645.969 225.747 648.511 225.344 651.616C224.941 654.72 224.599 656.515 224.317 657C223.597 655.541 223.114 654.988 222.869 655.339C222.66 655.555 222.436 655.692 222.197 655.749C221.613 655.971 221.235 655.309 221.062 653.762C220.944 652.829 220.865 649.171 220.823 642.787C220.816 641.451 220.809 640.116 220.801 638.78C220.758 637.579 220.729 636.457 220.716 635.416C220.659 633.173 220.648 631.17 220.684 629.406C220.692 623.93 220.8 617.677 221.01 610.649C221.075 607.416 221.155 604.262 221.251 601.189C221.316 597.956 221.381 594.723 221.446 591.489C221.576 585.023 221.626 578.304 221.596 571.332C221.566 564.361 221.512 557.75 221.434 551.501C221.405 546.159 221.358 540.884 221.292 535.676C221.263 530.333 221.216 525.058 221.151 519.85C221.085 514.642 221.023 509.287 220.963 503.785C220.91 497.99 220.859 492.047 220.811 485.957L220.617 449.898C220.572 447.067 220.527 444.236 220.482 441.405C220.442 438.28 220.385 435.223 220.309 432.232C220.233 429.241 220.172 426.33 220.127 423.5C220.087 420.375 220.045 417.397 220 414.566C220.167 407.966 220.278 400.751 220.333 392.924C220.434 387.927 220.503 382.77 220.542 377.454C220.581 372.138 220.605 366.741 220.613 361.265C220.621 355.789 220.641 350.54 220.674 345.517C220.676 340.335 220.706 335.459 220.764 330.891L220.706 303.324C220.696 298.73 220.686 294.135 220.676 289.541C220.673 284.652 220.669 279.764 220.665 274.876C220.67 266.14 220.694 257.338 220.736 248.469C220.785 239.306 220.836 229.996 220.89 220.539C220.944 211.082 220.992 201.918 221.034 193.049C221.045 184.02 221.036 175.205 221.004 166.604C221.087 162.489 221.096 157.828 221.03 152.62C221.01 150.242 220.987 148.012 220.96 145.929C220.94 143.552 220.935 141.255 220.946 139.037C220.962 136.526 220.979 134.015 220.995 131.504C221.049 128.858 221.099 126.36 221.146 124.009C221.258 118.424 221.288 113.548 221.236 109.382C221.341 102.462 221.318 96.0112 221.166 90.0298C221.038 84.5021 221.058 77.6233 221.223 69.3934C221.235 68.8055 221.295 67.4957 221.404 65.464C221.453 64.742 221.502 64.02 221.55 63.2981C221.605 62.2822 221.659 61.2663 221.714 60.2504L221.8 53.3973C221.848 51.0459 221.938 49.0812 222.072 47.5032C222.096 46.3275 222.175 44.9506 222.309 43.3726L222.783 37.5556C223.057 34.1056 223.239 31.8056 223.331 30.6556C223.391 29.3458 223.623 27.9533 224.027 26.4781C224.248 25.6735 224.576 24.6135 225.011 23.2982C225.446 21.9828 225.768 21.2168 225.976 21C226.247 21.1029 226.435 21.9148 226.54 23.4359C226.677 25.1168 226.926 26.2484 227.289 26.8307Z" fill="black"/>
<path d="M457.289 27.8307L458.541 26.53C458.583 32.9137 458.656 39.4573 458.759 46.1606C458.832 52.7042 458.917 59.4746 459.015 66.4718C459.149 73.335 459.228 80.3994 459.252 87.6648C459.313 94.7962 459.337 102.062 459.325 109.461C459.34 129.015 459.141 149.079 458.727 169.654C458.319 189.935 458.278 208.875 458.605 226.473C458.73 228.742 458.836 231.078 458.924 233.481C459.018 235.59 459.093 237.766 459.15 240.009L459.492 253.467C459.591 262.094 459.682 267.755 459.763 270.452C459.895 274.056 459.965 277.341 459.974 280.306C459.992 287.865 459.989 295.639 459.964 303.626C459.946 311.32 459.906 319.227 459.845 327.349C459.783 335.471 459.756 343.605 459.762 351.752C459.775 359.606 459.821 367.472 459.901 375.351C460.018 391.537 460 407.672 459.846 423.755C459.785 431.877 459.724 439.998 459.663 448.12C459.638 456.107 459.614 464.095 459.589 472.082C459.581 477.558 459.573 483.035 459.565 488.511C459.594 493.853 459.623 499.195 459.651 504.537C459.68 509.879 459.693 515.141 459.691 520.324C459.689 525.506 459.672 530.608 459.639 535.631C459.666 539.343 459.678 542.976 459.675 546.529C459.708 549.948 459.723 553.434 459.72 556.986C459.725 563.504 459.801 569.901 459.947 576.176C459.821 580.719 459.711 585.342 459.617 590.045C459.522 594.748 459.443 599.53 459.379 604.393C459.294 613.69 458.847 622.405 458.036 630.538C457.914 631.528 457.807 632.598 457.716 633.748C457.557 634.872 457.414 636.077 457.286 637.361C457.158 638.645 457.014 639.849 456.856 640.973C456.691 642.391 456.511 643.73 456.315 644.988C456.071 646.969 455.747 649.511 455.344 652.616C454.941 655.72 454.599 657.515 454.317 658C453.597 656.541 453.114 655.988 452.869 656.339C452.66 656.555 452.436 656.692 452.197 656.749C451.613 656.971 451.235 656.309 451.062 654.762C450.944 653.829 450.865 650.171 450.823 643.787C450.816 642.451 450.809 641.116 450.801 639.78C450.758 638.579 450.729 637.457 450.716 636.416C450.659 634.173 450.648 632.17 450.684 630.406C450.692 624.93 450.8 618.677 451.01 611.649C451.075 608.416 451.155 605.262 451.251 602.189C451.316 598.956 451.381 595.723 451.446 592.489C451.576 586.023 451.626 579.304 451.596 572.332C451.566 565.361 451.512 558.75 451.434 552.501C451.405 547.159 451.358 541.884 451.292 536.676C451.263 531.333 451.216 526.058 451.151 520.85C451.085 515.642 451.023 510.287 450.963 504.785C450.91 498.99 450.859 493.047 450.811 486.957L450.617 450.898C450.572 448.067 450.527 445.236 450.482 442.405C450.442 439.28 450.385 436.223 450.309 433.232C450.233 430.241 450.172 427.33 450.127 424.5C450.087 421.375 450.045 418.397 450 415.566C450.167 408.966 450.278 401.751 450.333 393.924C450.434 388.927 450.503 383.77 450.542 378.454C450.581 373.138 450.605 367.741 450.613 362.265C450.621 356.789 450.641 351.54 450.674 346.517C450.676 341.335 450.706 336.459 450.764 331.891L450.706 304.324C450.696 299.73 450.686 295.135 450.676 290.541C450.673 285.652 450.669 280.764 450.665 275.876C450.67 267.14 450.694 258.338 450.736 249.469C450.785 240.306 450.836 230.996 450.89 221.539C450.944 212.082 450.992 202.918 451.034 194.049C451.045 185.02 451.036 176.205 451.004 167.604C451.087 163.489 451.096 158.828 451.03 153.62C451.01 151.242 450.987 149.012 450.96 146.929C450.94 144.552 450.935 142.255 450.946 140.037C450.962 137.526 450.979 135.015 450.995 132.504C451.049 129.858 451.099 127.36 451.146 125.009C451.258 119.424 451.288 114.548 451.236 110.382C451.341 103.462 451.318 97.0112 451.166 91.0298C451.038 85.5021 451.058 78.6233 451.223 70.3934C451.235 69.8055 451.295 68.4957 451.404 66.464C451.453 65.742 451.502 65.02 451.55 64.2981C451.605 63.2822 451.659 62.2663 451.714 61.2504L451.8 54.3973C451.848 52.0459 451.938 50.0812 452.072 48.5032C452.096 47.3275 452.175 45.9506 452.309 44.3726L452.783 38.5556C453.057 35.1056 453.239 32.8056 453.331 31.6556C453.391 30.3458 453.623 28.9533 454.027 27.4781C454.248 26.6735 454.576 25.6135 455.011 24.2982C455.446 22.9828 455.768 22.2168 455.976 22C456.247 22.1029 456.435 22.9148 456.54 24.4359C456.677 26.1168 456.926 27.2484 457.289 27.8307Z" fill="black"/>
<path d="M42.8048 452.7L41.506 451.446C47.8805 451.404 54.4145 451.332 61.1081 451.228C67.6422 451.155 74.4028 451.07 81.3899 450.972C88.2431 450.838 95.2972 450.758 102.552 450.734C109.673 450.673 116.928 450.649 124.317 450.662C143.842 450.647 163.877 450.846 184.422 451.261C204.674 451.669 223.586 451.71 241.159 451.382C243.425 451.258 245.757 451.151 248.157 451.063C250.262 450.969 252.435 450.894 254.675 450.837L268.114 450.494C276.728 450.395 282.381 450.304 285.074 450.222C288.673 450.09 291.953 450.02 294.914 450.012C302.462 449.993 310.224 449.997 318.2 450.021C325.883 450.04 333.779 450.08 341.888 450.141C349.998 450.202 358.121 450.23 366.256 450.223C374.098 450.211 381.953 450.165 389.821 450.085C405.983 449.968 422.095 449.986 438.155 450.139C446.264 450.201 454.374 450.262 462.484 450.323C470.46 450.348 478.436 450.372 486.411 450.397C491.88 450.405 497.348 450.413 502.816 450.421C508.151 450.392 513.485 450.363 518.819 450.335C524.154 450.306 529.408 450.293 534.583 450.295C539.758 450.297 544.853 450.314 549.868 450.347C553.575 450.32 557.203 450.308 560.75 450.311C564.164 450.278 567.645 450.263 571.193 450.266C577.701 450.261 584.088 450.185 590.354 450.039C594.891 450.164 599.507 450.275 604.203 450.369C608.899 450.464 613.675 450.543 618.53 450.607C627.814 450.692 636.516 451.141 644.637 451.952C645.626 452.075 646.695 452.181 647.843 452.273C648.965 452.432 650.168 452.575 651.45 452.704C652.732 452.832 653.935 452.975 655.057 453.134C656.474 453.299 657.81 453.48 659.067 453.676C661.044 453.92 663.583 454.244 666.683 454.648C669.783 455.051 671.575 455.394 672.059 455.677C670.603 456.398 670.05 456.881 670.4 457.127C670.617 457.336 670.754 457.56 670.81 457.8C671.032 458.384 670.371 458.763 668.827 458.937C667.895 459.054 664.242 459.134 657.867 459.176C656.533 459.183 655.2 459.19 653.866 459.197C652.667 459.241 651.547 459.27 650.507 459.283C648.267 459.34 646.267 459.351 644.506 459.315C639.037 459.307 632.794 459.198 625.776 458.989C622.547 458.924 619.398 458.843 616.33 458.747C613.101 458.682 609.873 458.617 606.644 458.552C600.187 458.421 593.478 458.371 586.516 458.401C579.555 458.431 572.954 458.486 566.713 458.564C561.379 458.593 556.112 458.64 550.911 458.706C545.577 458.735 540.309 458.782 535.109 458.847C529.909 458.913 524.561 458.976 519.067 459.035C513.28 459.089 507.346 459.14 501.265 459.188L465.258 459.382C462.431 459.427 459.604 459.472 456.778 459.518C453.657 459.557 450.604 459.615 447.618 459.691C444.631 459.767 441.725 459.828 438.898 459.873C435.778 459.912 432.804 459.955 429.977 460C423.386 459.833 416.183 459.722 408.367 459.666C403.377 459.566 398.228 459.496 392.919 459.457C387.611 459.418 382.222 459.395 376.754 459.387C371.286 459.379 366.044 459.358 361.029 459.325C355.854 459.323 350.986 459.293 346.423 459.235L318.897 459.293C314.309 459.303 309.721 459.313 305.133 459.323C300.252 459.326 295.371 459.33 290.49 459.334C281.767 459.329 272.978 459.305 264.121 459.262C254.972 459.214 245.675 459.163 236.232 459.109C226.788 459.055 217.638 459.007 208.782 458.964C199.766 458.953 190.964 458.963 182.375 458.994C178.266 458.911 173.612 458.903 168.411 458.968C166.037 458.989 163.811 459.012 161.73 459.038C159.357 459.058 157.063 459.063 154.849 459.053C152.341 459.036 149.834 459.02 147.326 459.003C144.684 458.95 142.19 458.9 139.842 458.852C134.265 458.74 129.397 458.71 125.236 458.762C118.326 458.657 111.885 458.68 105.912 458.833C100.393 458.96 93.5237 458.941 85.3057 458.775C84.7187 458.763 83.4108 458.703 81.382 458.594C80.6611 458.545 79.9402 458.496 79.2193 458.448C78.2049 458.393 77.1904 458.338 76.176 458.284L69.3329 458.197C66.9849 458.15 65.023 458.059 63.4473 457.925C62.2733 457.901 60.8984 457.822 59.3227 457.688L53.5141 457.213C50.0691 456.939 47.7725 456.756 46.6242 456.665C45.3163 456.604 43.9258 456.372 42.4528 455.967C41.6493 455.746 40.5909 455.418 39.2774 454.982C37.964 454.546 37.199 454.224 36.9826 454.015C37.0853 453.744 37.8961 453.556 39.4149 453.45C41.0934 453.314 42.2233 453.064 42.8048 452.7Z" fill="black"/>
<path d="M654.255 227.3L655.553 228.554C649.179 228.596 642.645 228.668 635.951 228.772C629.417 228.845 622.657 228.93 615.67 229.028C608.816 229.162 601.762 229.242 594.507 229.266C587.386 229.327 580.131 229.351 572.743 229.338C553.217 229.353 533.182 229.154 512.637 228.739C492.386 228.331 473.473 228.29 455.9 228.618C453.635 228.742 451.302 228.849 448.903 228.937C446.797 229.031 444.624 229.106 442.385 229.163L428.946 229.506C420.332 229.605 414.678 229.696 411.985 229.778C408.386 229.91 405.106 229.98 402.146 229.988C394.597 230.007 386.835 230.003 378.859 229.979C371.177 229.96 363.281 229.92 355.171 229.859C347.061 229.798 338.939 229.77 330.803 229.777C322.961 229.789 315.107 229.835 307.239 229.915C291.076 230.032 274.965 230.014 258.905 229.861C250.795 229.799 242.685 229.738 234.576 229.677C226.6 229.652 218.624 229.628 210.648 229.603C205.18 229.595 199.712 229.587 194.243 229.579C188.909 229.608 183.575 229.637 178.24 229.665C172.906 229.694 167.651 229.707 162.476 229.705C157.302 229.703 152.207 229.686 147.192 229.653C143.484 229.68 139.857 229.692 136.309 229.689C132.895 229.722 129.415 229.737 125.867 229.734C119.359 229.739 112.971 229.815 106.705 229.961C102.169 229.836 97.5525 229.725 92.8565 229.631C88.1605 229.536 83.3847 229.457 78.5291 229.393C69.2453 229.308 60.543 228.859 52.4222 228.048C51.4335 227.925 50.365 227.819 49.2166 227.727C48.094 227.568 46.8915 227.425 45.6093 227.296C44.327 227.168 43.1247 227.025 42.002 226.866C40.5859 226.701 39.2495 226.52 37.9929 226.324C36.0154 226.08 33.4767 225.756 30.3765 225.352C27.2764 224.949 25.4843 224.606 25 224.323C26.4564 223.602 27.0094 223.119 26.6591 222.873C26.4426 222.664 26.3059 222.44 26.249 222.2C26.027 221.616 26.6884 221.237 28.2329 221.063C29.1648 220.946 32.8179 220.866 39.1924 220.824C40.526 220.817 41.8595 220.81 43.1931 220.803C44.3928 220.759 45.5127 220.73 46.5528 220.717C48.7925 220.66 50.7929 220.649 52.5539 220.685C58.0222 220.693 64.2655 220.802 71.2838 221.011C74.5123 221.076 77.661 221.157 80.7299 221.253C83.9584 221.318 87.187 221.383 90.4155 221.448C96.8725 221.579 103.582 221.629 110.543 221.599C117.505 221.569 124.106 221.514 130.346 221.436C135.68 221.407 140.948 221.36 146.148 221.294C151.483 221.265 156.75 221.218 161.951 221.153C167.151 221.087 172.498 221.024 177.992 220.965C183.78 220.911 189.714 220.86 195.795 220.812L231.802 220.618C234.628 220.573 237.455 220.528 240.282 220.482C243.402 220.443 246.456 220.385 249.442 220.309C252.428 220.233 255.335 220.172 258.162 220.127C261.282 220.088 264.255 220.045 267.082 220C273.673 220.167 280.877 220.278 288.693 220.334C293.682 220.434 298.831 220.504 304.14 220.543C309.449 220.582 314.837 220.605 320.306 220.613C325.774 220.621 331.016 220.642 336.031 220.675C341.206 220.677 346.074 220.707 350.636 220.765L378.163 220.707C382.75 220.697 387.338 220.687 391.926 220.677C396.807 220.674 401.689 220.67 406.57 220.666C415.292 220.671 424.082 220.695 432.938 220.738C442.088 220.786 451.384 220.837 460.828 220.891C470.271 220.945 479.421 220.993 488.277 221.036C497.293 221.047 506.096 221.037 514.684 221.006C518.793 221.089 523.448 221.097 528.648 221.032C531.022 221.011 533.249 220.988 535.329 220.962C537.703 220.942 539.997 220.937 542.211 220.947C544.718 220.964 547.226 220.98 549.734 220.997C552.375 221.05 554.87 221.1 557.218 221.148C562.794 221.26 567.663 221.29 571.823 221.238C578.733 221.343 585.175 221.32 591.147 221.167C596.667 221.04 603.536 221.059 611.754 221.225C612.341 221.237 613.649 221.297 615.677 221.406C616.398 221.455 617.119 221.504 617.84 221.552C618.855 221.607 619.869 221.662 620.883 221.716L627.727 221.803C630.075 221.85 632.036 221.941 633.612 222.075C634.786 222.099 636.161 222.178 637.737 222.312L643.545 222.787C646.99 223.061 649.287 223.244 650.435 223.335C651.743 223.396 653.134 223.628 654.607 224.033C655.41 224.254 656.469 224.582 657.782 225.018C659.095 225.454 659.86 225.776 660.077 225.985C659.974 226.256 659.163 226.444 657.645 226.55C655.966 226.686 654.836 226.936 654.255 227.3Z" fill="black"/>
</svg>
