<svg width="80" height="80" viewBox="0 0 80 80" fill="none" xmlns="http://www.w3.org/2000/svg">
<path d="M42.9241 71.7242C34.5152 71.6993 26.455 68.361 20.491 62.4331C19.9737 61.9159 19.6832 61.2143 19.6832 60.4828C19.6832 59.7513 19.9737 59.0497 20.491 58.5324C21.0083 58.0152 21.7098 57.7246 22.4414 57.7246C23.1729 57.7246 23.8744 58.0152 24.3917 58.5324C29.3184 63.4299 35.9774 66.1875 42.9241 66.2069C57.3738 66.2069 69.131 54.4497 69.131 40C69.131 25.5504 57.3738 13.7931 42.9241 13.7931C29.0096 13.7931 17.2607 25.1062 16.7365 39.0124C16.6786 40.5352 15.3627 41.6938 13.8758 41.6662C13.145 41.6382 12.4552 41.3211 11.9581 40.7847C11.461 40.2483 11.1972 39.5364 11.2248 38.8055C11.8593 21.9697 26.08 8.27588 42.9241 8.27588C60.4165 8.27588 74.6483 22.5076 74.6483 40C74.6483 57.4924 60.4138 71.7242 42.9241 71.7242Z" fill="black"/>
<path d="M35.8538 53.9034C35.2509 53.9038 34.6538 53.7853 34.0967 53.5547C33.5396 53.3242 33.0334 52.9861 32.6071 52.5597C32.1808 52.1334 31.8427 51.6272 31.6121 51.0702C31.3815 50.5131 31.2631 49.916 31.2634 49.3131V30.6841C31.2634 29.0372 32.1517 27.5089 33.5862 26.6924C34.2919 26.2927 35.0908 26.0868 35.9018 26.0955C36.7128 26.1042 37.5071 26.3273 38.2041 26.742L53.851 36.0551C55.2551 36.891 56.0938 38.3641 56.0938 40C56.0938 41.6358 55.2551 43.1089 53.851 43.9448L38.2069 53.2579C37.4948 53.6807 36.6819 53.9037 35.8538 53.9034ZM36.7807 32.3172V47.6827L49.6883 40L36.7807 32.3172ZM13.0151 42.4882C12.5226 42.4885 12.039 42.3569 11.6145 42.107C11.1901 41.8572 10.8402 41.4983 10.6014 41.0676L5.70204 32.24C5.51734 31.9228 5.39778 31.5721 5.35035 31.2081C5.30292 30.8442 5.32857 30.4745 5.42582 30.1206C5.52306 29.7668 5.68993 29.4359 5.91666 29.1473C6.1434 28.8587 6.42543 28.6183 6.74624 28.4401C7.06706 28.2619 7.42021 28.1495 7.78501 28.1094C8.14981 28.0694 8.51893 28.1026 8.87075 28.207C9.22257 28.3114 9.55002 28.485 9.83392 28.7176C10.1178 28.9501 10.3525 29.237 10.5241 29.5613L14.0855 35.9779L20.502 32.4165C21.1386 32.1 21.8726 32.0412 22.5514 32.2523C23.2302 32.4635 23.8015 32.9282 24.1463 33.5499C24.491 34.1715 24.5828 34.9022 24.4024 35.5898C24.222 36.2774 23.7834 36.869 23.1779 37.2413L14.3503 42.1407C13.9424 42.3691 13.4827 42.4888 13.0151 42.4882Z" fill="black"/>
</svg>
