<svg width="80" height="80" viewBox="0 0 80 80" fill="none" xmlns="http://www.w3.org/2000/svg">
<g clip-path="url(#clip0_910_2)">
<path d="M75.8815 31.1111H68.397C67.1941 31.1111 66.203 30.4489 65.7422 29.3378C65.2815 28.2267 65.5156 27.0563 66.3644 26.2059L71.6563 20.9156C72.4341 20.1378 72.8622 19.1022 72.8622 18.003C72.8622 16.9022 72.4341 15.8681 71.6563 15.0889L64.9111 8.3437C63.3556 6.78815 60.643 6.78518 59.0844 8.3437L53.7941 13.6341C52.9437 14.483 51.7704 14.72 50.6622 14.2578C49.5511 13.797 48.8889 12.8059 48.8889 11.603V4.11852C48.8889 1.84741 47.0415 0 44.7704 0H35.2296C32.9585 0 31.1111 1.84741 31.1111 4.11852V11.603C31.1111 12.8059 30.4489 13.797 29.3378 14.2578C28.2296 14.7215 27.0563 14.483 26.2059 13.6341L20.9156 8.3437C19.357 6.78518 16.6444 6.78815 15.0889 8.3437L8.3437 15.0889C7.56593 15.8667 7.13778 16.9022 7.13778 18.003C7.13778 19.1022 7.56593 20.1363 8.3437 20.9156L13.6356 26.2059C14.4844 27.0563 14.717 28.2267 14.2578 29.3378C13.7985 30.4489 12.8059 31.1111 11.603 31.1111H4.11852C1.84741 31.1111 0 32.9585 0 35.2296V44.7689C0 47.0415 1.84741 48.8889 4.11852 48.8889H11.603C12.8059 48.8889 13.797 49.5511 14.2578 50.6622C14.7185 51.7733 14.4844 52.9437 13.6356 53.7941L8.3437 59.0844C7.56593 59.8622 7.13778 60.8978 7.13778 61.997C7.13778 63.0978 7.56593 64.1318 8.3437 64.9111L15.0889 71.6563C16.6459 73.2133 19.357 73.2163 20.9156 71.6563L26.2059 66.3644C27.0563 65.5156 28.2252 65.2815 29.3378 65.7422C30.4489 66.203 31.1111 67.1941 31.1111 68.397V75.8815C31.1111 78.1526 32.9585 80 35.2296 80H44.7689C47.04 80 48.8874 78.1526 48.8874 75.8815V68.397C48.8874 67.1941 49.5496 66.203 50.6607 65.7422C51.7733 65.28 52.9422 65.5156 53.7926 66.3644L59.083 71.6563C60.6415 73.2148 63.3541 73.2118 64.9096 71.6563L71.6548 64.9111C72.4326 64.1333 72.8607 63.0978 72.8607 61.997C72.8607 60.8978 72.4326 59.8637 71.6548 59.0844L66.363 53.7941C65.5141 52.9437 65.2815 51.7733 65.7407 50.6622C66.2 49.5511 67.1941 48.8889 68.397 48.8889H75.8815C78.1526 48.8889 80 47.0415 80 44.7704V35.2296C80 32.9585 78.1526 31.1111 75.8815 31.1111ZM77.037 44.7704C77.037 45.4074 76.5185 45.9259 75.8815 45.9259H68.397C65.9911 45.9259 63.9244 47.3067 63.0044 49.5289C62.083 51.7511 62.5674 54.1896 64.2696 55.8904L69.5615 61.1807C70.0133 61.6326 70.0133 62.3659 69.5615 62.8163L62.8163 69.5615C62.3659 70.0118 61.6326 70.0148 61.1807 69.5615L55.8904 64.2696C54.1881 62.5674 51.7511 62.0859 49.5289 63.0044C47.3067 63.9244 45.9259 65.9911 45.9259 68.397V75.8815C45.9259 76.5185 45.4074 77.037 44.7704 77.037H35.2296C34.5926 77.037 34.0741 76.5185 34.0741 75.8815V68.397C34.0741 65.9911 32.6933 63.9244 30.4711 63.0044C29.7259 62.6948 28.9585 62.5437 28.2 62.5437C26.6978 62.5437 25.2415 63.1363 24.1096 64.2681L18.8193 69.56C18.3659 70.0133 17.6326 70.0104 17.1837 69.56L10.4385 62.8148C9.98667 62.363 9.98667 61.6296 10.4385 61.1793L15.7304 55.8889C17.4311 54.1881 17.917 51.7496 16.9956 49.5274C16.0756 47.3067 14.0089 45.9259 11.603 45.9259H4.11852C3.48148 45.9259 2.96296 45.4074 2.96296 44.7704V35.2296C2.96296 34.5926 3.48148 34.0741 4.11852 34.0741H11.603C14.0089 34.0741 16.0756 32.6933 16.9956 30.4711C17.917 28.2489 17.4326 25.8104 15.7304 24.1096L10.4385 18.8193C9.98667 18.3674 9.98667 17.6341 10.4385 17.1837L17.1837 10.4385C17.6341 9.98667 18.3674 9.98667 18.8193 10.4385L24.1096 15.7289C25.8089 17.4281 28.2459 17.9156 30.4711 16.9941C32.6933 16.0756 34.0741 14.0089 34.0741 11.603V4.11852C34.0741 3.48148 34.5926 2.96296 35.2296 2.96296H44.7689C45.4074 2.96296 45.9259 3.48148 45.9259 4.11852V11.603C45.9259 14.0089 47.3067 16.0756 49.5289 16.9956C51.7541 17.917 54.1896 17.4311 55.8904 15.7304L61.1807 10.44C61.6341 9.98815 62.3674 9.98815 62.8163 10.44L69.5615 17.1852C70.0133 17.637 70.0133 18.3704 69.5615 18.8207L64.2696 24.1111C62.5689 25.8119 62.083 28.2504 63.0044 30.4726C63.9244 32.6948 65.9911 34.0756 68.397 34.0756H75.8815C76.5185 34.0741 77.037 34.5926 77.037 35.2296V44.7704Z" fill="black"/>
<path d="M40 26.6667C32.6474 26.6667 26.6667 32.6475 26.6667 40.0001C26.6667 47.3527 32.6474 53.3334 40 53.3334C47.3526 53.3334 53.3334 47.3527 53.3334 40.0001C53.3334 32.6475 47.3526 26.6667 40 26.6667ZM40 50.3705C34.283 50.3705 29.6296 45.7171 29.6296 40.0001C29.6296 34.283 34.283 29.6297 40 29.6297C45.7171 29.6297 50.3704 34.283 50.3704 40.0001C50.3704 45.7171 45.7171 50.3705 40 50.3705Z" fill="black"/>
</g>
<defs>
<clipPath id="clip0_910_2">
<rect width="80" height="80" fill="white"/>
</clipPath>
</defs>
</svg>
