<svg width="220" height="220" viewBox="0 0 220 220" fill="none" xmlns="http://www.w3.org/2000/svg">
<path d="M106.04 174.6C94.52 174.6 83.8 172.12 73.88 167.16C63.96 162.04 55.96 155 49.88 146.04C43.96 136.92 41 126.36 41 114.36C41 106.2 42.68 98.6 46.04 91.56C49.56 84.52 54.04 77.8 59.48 71.4C64.92 65 70.6 58.76 76.52 52.68C79.24 49.96 82.36 48.04 85.88 46.92C89.4 45.64 93.16 45 97.16 45C108.2 45 118.6 46.2 128.36 48.6C138.12 50.84 146.76 54.52 154.28 59.64C161.96 64.76 167.96 71.4 172.28 79.56C176.6 87.72 178.76 97.64 178.76 109.32C178.76 118.92 176.68 127.72 172.52 135.72C168.52 143.72 163 150.68 155.96 156.6C149.08 162.36 141.32 166.84 132.68 170.04C124.04 173.08 115.16 174.6 106.04 174.6ZM100.76 156.84C108.12 156.84 115.4 155.8 122.6 153.72C129.96 151.64 136.6 148.52 142.52 144.36C148.44 140.04 153.16 134.68 156.68 128.28C160.36 121.88 162.2 114.28 162.2 105.48C162.2 97.48 160.44 90.68 156.92 85.08C153.56 79.32 149.08 74.68 143.48 71.16C137.88 67.48 131.8 64.76 125.24 63C118.68 61.24 112.28 60.36 106.04 60.36C103.48 60.36 100.6 60.6 97.4 61.08C94.36 61.4 91.4 62.92 88.52 65.64C85 69 81.4 72.44 77.72 75.96C74.2 79.32 70.92 83.08 67.88 87.24C64.84 91.24 62.36 95.72 60.44 100.68C58.52 105.64 57.56 111 57.56 116.76C57.56 126.04 59.48 133.64 63.32 139.56C67.32 145.48 72.6 149.88 79.16 152.76C85.72 155.48 92.92 156.84 100.76 156.84Z" fill="black"/>
</svg>
