<svg width="220" height="220" viewBox="0 0 220 220" fill="none" xmlns="http://www.w3.org/2000/svg">
<path d="M147.36 174.6C144.96 174.6 142.96 174.04 141.36 172.92C139.92 171.8 138.32 169.8 136.56 166.92L118.8 137.88C118.16 136.76 116.96 135 115.2 132.6C113.44 130.2 111.68 127.88 109.92 125.64C108.32 123.4 107.28 122.04 106.8 121.56C104.88 123.16 102.48 125.56 99.6 128.76C96.88 131.96 94.16 135.32 91.44 138.84L84 147.96C83.2 148.76 82.32 149.72 81.36 150.84C80.4 151.8 79.44 152.84 78.48 153.96C76.24 156.36 74.32 158.52 72.72 160.44C71.12 162.36 69.12 164.2 66.72 165.96C64.8 167.4 62.72 168.12 60.48 168.12C58.72 168.12 57.2 167.56 55.92 166.44C54.64 165.16 54 163.24 54 160.68C54 156.52 55.68 152.2 59.04 147.72C62.56 143.08 66.88 138.28 72 133.32C74.56 130.92 77.04 128.6 79.44 126.36C81.84 124.12 83.92 121.96 85.68 119.88C87.44 117.8 89.12 115.88 90.72 114.12C92.48 112.36 94.64 109.88 97.2 106.68C96.72 105.72 95.36 103.64 93.12 100.44C90.88 97.08 88.4 93.4 85.68 89.4C82.96 85.4 80.4 81.8 78 78.6C75.76 75.4 74.24 73.32 73.44 72.36C70.88 69.32 68.08 65.88 65.04 62.04C62.16 58.2 60.72 54.2 60.72 50.04C60.72 48.28 61.44 47 62.88 46.2C64.48 45.4 66.32 45 68.4 45C70.16 45 72.24 46.04 74.64 48.12C77.2 50.2 79.36 52.44 81.12 54.84C82.88 57.08 85.2 60.12 88.08 63.96C90.96 67.64 93.76 71.16 96.48 74.52C99.2 77.88 101.04 80.28 102 81.72C102.64 82.2 103.52 83.32 104.64 85.08C105.92 86.84 107.12 88.52 108.24 90.12C109.36 91.56 109.92 92.28 109.92 92.28C116.64 85.24 123.36 78.28 130.08 71.4C136.96 64.52 143.76 57.64 150.48 50.76C152.72 48.52 154.4 47.24 155.52 46.92C156.8 46.44 158.08 46.2 159.36 46.2C163.52 46.2 165.6 48.36 165.6 52.68C165.6 54.44 165.36 55.88 164.88 57C164.56 58.12 163.84 59.4 162.72 60.84C155.36 68.84 149.04 75.64 143.76 81.24C138.48 86.68 134.08 91.4 130.56 95.4C127.04 99.4 124 103.16 121.44 106.68C121.92 108.6 123.44 111.8 126 116.28C128.56 120.6 131.44 125.32 134.64 130.44C138 135.56 141.04 140.36 143.76 144.84C146.64 149.16 148.64 152.28 149.76 154.2C152.96 159.64 154.56 164.2 154.56 167.88C154.56 172.36 152.16 174.6 147.36 174.6Z" fill="currentColor"/>
</svg>
